<?xml version="1.0" standalone="no"?>
<!DOCTYPE svg PUBLIC "-//W3C//DTD SVG 20010904//EN"
 "http://www.w3.org/TR/2001/REC-SVG-20010904/DTD/svg10.dtd">
<svg version="1.0" xmlns="http://www.w3.org/2000/svg"
 width="1993.000000pt" height="2072.000000pt" viewBox="0 0 1993.000000 2072.000000"
 preserveAspectRatio="xMidYMid meet">

<g transform="translate(0.000000,2072.000000) scale(0.100000,-0.100000)"
fill="#000000" stroke="none">
<path d="M9350 20709 c-645 -30 -1303 -129 -1959 -295 -1729 -437 -3306 -1343
-4568 -2625 -353 -359 -592 -638 -886 -1031 -1062 -1426 -1718 -3115 -1892
-4873 -30 -305 -36 -422 -42 -770 -14 -863 69 -1661 258 -2470 257 -1102 718
-2173 1343 -3125 508 -773 1121 -1471 1811 -2064 1033 -887 2244 -1557 3508
-1940 586 -178 1061 -280 1647 -355 2119 -272 4280 157 6129 1217 l115 65 190
-63 c480 -158 1431 -522 1641 -628 28 -13 730 -412 1560 -886 1465 -835 1512
-861 1562 -861 58 0 93 20 131 76 20 28 23 43 19 89 -4 52 -62 158 -937 1690
-513 899 -941 1655 -952 1679 -114 267 -475 1301 -462 1323 4 6 72 99 152 207
1054 1428 1697 3095 1871 4851 36 360 45 546 45 925 -1 476 -23 858 -74 1270
-251 2005 -1098 3857 -2453 5365 -165 183 -552 569 -722 720 -504 447 -980
798 -1525 1127 -579 348 -1255 662 -1876 871 -449 152 -1013 296 -1474 377
-195 34 -643 91 -865 110 -404 34 -887 43 -1295 24z m850 -1919 c863 -44 1647
-210 2465 -523 116 -44 212 -81 213 -83 3 -2 -853 -1492 -862 -1502 -2 -1
-117 36 -257 82 -485 161 -925 252 -1444 298 -187 16 -813 16 -980 0 -785 -76
-1407 -240 -2076 -547 -1029 -472 -1931 -1253 -2564 -2220 -200 -304 -391
-664 -530 -1000 -220 -527 -378 -1159 -435 -1735 -42 -435 -29 -992 35 -1456
146 -1056 590 -2092 1251 -2925 170 -214 276 -333 488 -544 325 -324 590 -542
951 -780 921 -608 1925 -940 3040 -1006 206 -12 641 -7 840 11 841 74 1662
318 2379 705 112 61 142 73 151 63 10 -10 803 -1379 843 -1454 10 -19 0 -27
-166 -117 -349 -189 -799 -388 -1152 -508 -1606 -548 -3323 -570 -4940 -62
-939 295 -1879 812 -2650 1457 -249 209 -609 559 -839 814 -284 317 -636 796
-858 1167 -628 1052 -984 2165 -1094 3425 -17 199 -23 833 -10 1052 73 1197
388 2298 950 3321 273 498 603 970 978 1399 141 162 485 511 648 657 968 870
2063 1456 3325 1780 511 131 997 202 1620 234 139 8 503 6 680 -3z m-1377
-6742 c2 -2305 4 -2437 21 -2508 100 -416 444 -740 886 -836 63 -14 127 -19
250 -19 178 0 272 15 405 62 356 128 615 392 722 738 l28 90 3 2453 2 2452
640 0 640 0 -2 -2457 -3 -2458 -22 -120 c-93 -506 -307 -920 -658 -1270 -352
-353 -780 -582 -1275 -684 -163 -34 -298 -46 -505 -45 -239 0 -395 19 -611 74
-193 49 -312 93 -501 186 -404 197 -763 522 -995 900 -179 292 -282 588 -328
947 -20 154 -20 209 -20 2542 l0 2385 660 0 660 0 3 -2432z"/>
</g>
</svg>
